<?xml version="1.0" encoding="UTF-8"?>
<svg width="374px" height="224px" viewBox="0 0 374 224" version="1.1" xmlns="http://www.w3.org/2000/svg" xmlns:xlink="http://www.w3.org/1999/xlink">
    <!-- Generator: Sketch 49 (51002) - http://www.bohemiancoding.com/sketch -->
    <title>talking-plants-logo-white-big</title>
    <desc>Created with Sketch.</desc>
    <defs></defs>
    <g id="Page-1" stroke="none" stroke-width="1" fill="none" fill-rule="evenodd">
        <g id="Desktop-HD" transform="translate(-326.000000, -251.000000)" fill="#FFFFFF">
            <g id="talking-plants-logo-white-big" transform="translate(326.000000, 251.000000)">
                <path d="M208.922395,56 C207.447402,56 206.144964,54.9775241 205.896768,53.5378961 C205.880221,53.4449437 204.391046,45.5258562 197.297368,41.011999 C189.912947,36.3077029 182.429247,36.9152939 182.35597,36.9198281 C180.691875,37.0762602 179.169607,35.8814823 179.013598,34.2582167 C178.855225,32.6372183 180.098569,31.2021246 181.788665,31.0524939 C182.176324,31.0116856 191.517947,30.2589982 200.696471,36.101394 C210.083007,42.0730162 211.888928,52.1549464 211.959841,52.5788998 C212.231675,54.1862955 211.094701,55.7007387 209.421151,55.9614588 C209.253323,55.9886643 209.085495,56 208.922395,56 Z M222.966035,52 C221.637065,52 220.415346,51.1200427 220.044633,49.7826933 C220.004997,49.6340989 215.861877,35.0672063 205.078572,28.1923946 C194.064446,21.1713102 180.16156,21.0366466 180.021669,21.0366466 C178.347634,21.0296812 176.995349,19.6760793 177.000012,18.0113579 C177.002344,16.3466365 178.354628,15.0464357 180.033327,15 C180.669833,15 195.808427,15.1137676 208.347371,23.1100025 C221.12413,31.2548318 225.703245,47.5003765 225.892099,48.1853037 C226.332757,49.7919804 225.383826,51.4497364 223.772742,51.890876 C223.502285,51.9628514 223.231829,52 222.966035,52 Z M238.382847,47.5151472 C236.984057,47.5174528 235.710246,46.6044128 235.352136,45.2463811 C235.306471,45.0642342 230.420323,26.9625244 214.110728,16.0291009 C198.37555,5.47611071 181.082958,5.94877031 179.484685,6.01794001 C179.412582,6.02255132 179.974982,6.04791355 179.364514,6.02485698 C178.468039,5.99257779 175.877154,5.62136708 176.004535,3.10359009 C176.129513,0.585813105 178.242118,0.0716516876 178.958336,0.0416781521 C179.676958,0.0140102731 179.05928,0.0370668389 179.155416,0.0324555258 C181.414629,-0.0712990204 200.281461,-0.560098216 217.694224,11.1157467 C235.974622,23.3726171 241.204459,42.970698 241.418364,43.8007344 C241.834155,45.4054714 240.812702,47.026348 239.139923,47.4275322 C238.887564,47.4874793 238.632802,47.5151472 238.382847,47.5151472 Z M224.906393,86.0536065 C225.448008,94.6514971 223.683693,102.616981 218.451187,109.58293 C212.951361,116.942061 200.924268,120.227261 192.925577,114.84825 C192.925577,114.84825 187.123563,117.202603 186.688876,125.272304 C186.698174,130.089965 189.0227,134.216005 189.0227,134.216005 C189.0227,134.216005 184.98035,135 179.99192,135 C175.001164,135 173.476276,134.801041 173.476276,134.801041 C174.343324,131.437678 176.068121,122.470292 174.740817,114.294006 C173.480925,106.534587 169.252614,99.5567949 166.907168,96.2692269 C164.91505,96.731097 163.064728,97.2806041 161.179538,97.5624633 C146.404857,99.7936514 129.556699,90.8452133 122.734218,76.8351519 C115.572356,62.1405753 114.893595,46.6146325 121.976423,32.1758609 C124.80537,26.4036682 128.145712,22.4221107 131.781269,18 C134.965869,25.4112395 139.263916,29.9351985 145.942276,33.3696176 C147.597338,34.2246695 149.289592,35.0157702 150.981847,35.7997652 C158.120463,39.0944389 165.366008,42.1877847 171.525999,47.2849363 C180.477745,54.7080187 183.787869,64.3693949 182.100264,75.8403547 C181.500536,79.8574407 179.954727,83.5737191 177.328014,86.9086584 C176.997931,86.5012653 176.772452,86.2691459 176.598113,86.0038666 C172.362828,79.5708444 166.967606,74.281839 160.854105,69.7413001 C156.570005,66.5555803 152.158056,63.5214487 147.887904,60.302569 C141.344366,55.3783226 136.116509,49.3692734 133.210852,41.4772152 C133.131818,41.2640444 132.983049,41.0816649 132.871472,40.8803369 C132.669238,40.9727109 132.460031,41.0650849 132.250823,41.1550904 C133.75944,44.7813632 135.056525,48.5260643 136.830138,52.0125919 C140.516835,59.2604004 146.349068,64.6559913 152.462569,69.7152459 C160.70301,76.5272385 168.255392,83.9408466 174.164335,93.06219 C175.605541,95.2862724 178.350805,99.4265239 180.263889,103.599935 C181.951494,107.273579 182.239735,107.785189 183.746028,110.786161 C185.431308,114.144786 191.621519,107.695184 198.17203,104.220499 C200.696464,102.879891 203.025639,101.176893 205.450118,99.6562747 C208.302311,97.8609025 210.968541,95.8310424 213.17684,93.2327267 C214.989969,91.0962812 216.447446,88.7442962 217.423747,86.0986092 C217.21454,86.2241432 217.068095,86.3970484 216.956517,86.5865336 C214.734271,90.3454461 211.647302,93.1687754 207.867624,95.2152155 C205.889454,96.2810697 203.892686,97.3042897 201.863376,98.2682956 C196.87727,100.629755 192.230544,103.479138 188.492708,107.680973 C188.420648,107.761504 188.299772,107.799401 188.116135,107.905986 C187.972014,107.590967 187.825569,107.306739 187.713992,107.013037 C184.71303,98.5951576 188.467138,88.6992935 196.238025,84.5306193 C199.722488,82.6618216 203.504491,81.6622872 207.305089,80.7409154 C212.693338,79.4310991 217.835188,77.7091524 221.126715,72.6735834 C221.159259,72.6238436 221.259213,72.6238436 221.384738,72.5812094 C221.554428,72.9459684 221.738066,73.3154645 221.893809,73.6896978 C223.606984,77.6309897 224.639073,81.7593983 224.906393,86.0536065 Z" id="Combined-Shape"></path>
                <g id="Group" stroke-width="1" transform="translate(0.000000, 152.000000)">
                    <path d="M40.8441717,23.7894737 C40.7502913,23.879541 40.5599932,23.9672381 40.5599932,24.1473727 C40.4661128,24.6830361 40.3696951,25.2210697 40.2707401,25.754363 C40.2707401,26.470161 40.1743224,27.2736562 40.0804421,27.987084 C40.0804421,28.4350503 39.9840244,26.2307716 39.890144,26.6787379 C39.7962636,27.3921658 39.6034282,28.1055936 39.5070105,28.9114589 C39.4131301,29.8026512 39.4131301,30.6985838 39.4131301,31.6798434 C39.3141751,32.9289346 38.8371612,34.1803961 39.0299966,35.5195547 L39.0299966,35.609622 C38.8371612,36.3230498 38.6468631,37.0388478 38.5504454,37.6645786 L38.5504454,39.359266 C38.5504454,39.7195352 38.3601474,40.075064 38.3601474,40.4305928 C38.4540277,41.1463909 38.5504454,39.582064 38.167312,40.0276602 C38.0734316,41.0112899 37.9770139,41.7223476 37.8805962,42.5282129 C37.7841785,42.9761792 37.5964177,43.5094724 37.5,44.0475061 C37.5,44.2252705 37.5964177,44.4931022 37.8805962,44.4030349 C39.0299966,44.1352032 40.0804421,43.8697416 41.1334248,43.5995397 C41.5165583,43.5094724 41.8971545,43.4217753 42.2777506,43.4217753 C43.0440176,43.2440109 43.9041649,43.0662465 44.6704319,42.9761792 L44.6704319,43.0662465 C44.7668496,43.1539436 44.8632673,43.2440109 44.9571477,43.4217753 C44.9571477,42.9761792 45.0535654,42.7059773 44.9571477,42.3504485 C44.8632673,41.456886 44.6704319,40.4732563 44.4801338,39.4919967 C44.2872984,38.2429055 44.193418,39.359266 44.0005826,38.1101747 C43.9041649,37.3943767 43.8102846,36.5908815 43.5261061,35.8774537 C42.9475999,34.092699 42.7598391,32.1278097 42.5670037,30.2506175 C42.3767056,29.0892233 42.1838702,28.0155263 41.9935722,26.8565023 C41.7068564,25.6074111 41.5165583,26.8256898 41.2273052,25.4865313 C41.1334248,24.9508678 41.1334248,24.4152044 41.0370071,23.879541 C41.0370071,23.879541 40.9405894,23.879541 40.8441717,23.7894737 M35.0246722,31.756864 L35.0246722,31.5817652 C34.8491378,31.4965198 34.6782227,31.3214211 34.4172308,31.2338717 C34.5904555,31.2338717 34.7659899,31.2338717 34.936905,31.1463223 C35.0246722,31.0610769 35.1124394,30.9735275 35.2002066,30.8007327 C35.1124394,30.7154872 34.936905,30.6279379 34.6782227,30.4505352 C34.7659899,30.7154872 34.7659899,30.8007327 34.8491378,30.8859781 L34.504998,30.8859781 C35.4611985,24.1124215 36.939383,20.0045128 38.5076442,13.3208094 C38.9418609,13.3208094 39.1173953,13.0604652 39.2028528,12.6250223 C39.2028528,12.1918833 39.5493023,11.9292352 39.9881383,12.0167846 C40.2468206,12.0167846 40.5978894,12.2794327 40.7711141,12.6250223 C41.0297964,12.9752198 41.1175636,13.4083588 41.3785555,13.8391938 C41.6418571,14.1893913 41.9883066,14.534981 42.3347561,14.9704239 C42.4248329,14.8828745 42.4248329,14.8828745 42.5126001,14.7976291 C42.8613593,15.6639071 43.3833432,16.532489 43.6420254,17.4863164 C43.9907846,18.2673489 43.9907846,19.1359308 44.2517765,19.9192673 C44.6005356,21.1357428 44.9469851,22.3499144 45.2980539,23.4788405 C45.3835115,23.7391847 45.4712787,23.9142834 45.5590459,24.1723237 C45.8177281,25.2137004 45.9909529,26.3426265 46.2542545,27.3840032 C46.5152464,28.3401345 46.7762383,26.7204712 47.0372303,27.5867492 C47.2982222,28.7179792 47.5569045,29.7593559 47.8202061,30.8859781 C47.9957405,31.6693146 48.1689652,32.4503472 48.34219,33.2313797 C48.5154147,33.9248629 48.6031819,34.5331006 48.7764066,35.2288878 C48.951941,35.9223709 49.1251658,36.6158541 49.212933,37.3116412 C49.3861577,38.0074283 49.5616921,38.7032155 49.6471496,39.3943947 C49.822684,40.350526 49.9959088,39.0004225 50.1714432,39.9565538 C50.2592104,40.9103812 50.2592104,41.8665125 50.4301254,42.8226438 C50.6056598,43.7787751 50.8689614,44.7326025 51.0398765,45.6887338 C51.2154109,46.6425611 51.4764029,47.5963885 51.6496276,48.5525198 C51.7373948,48.8981094 51.9106195,49.1607575 51.9983867,49.5063472 C52.0861539,50.2896836 52.1716115,51.0707162 52.257069,51.8517488 C52.257069,52.0268475 52.4326034,52.1996423 52.5203706,52.4599865 C52.695905,53.241019 52.8691297,54.109601 53.0423545,54.8906335 C53.127812,55.5864206 53.2155792,56.2775999 53.3033464,56.973387 C53.3934233,57.4940754 53.4788808,58.0147637 53.566648,58.4502067 C53.6521056,59.6643782 53.6521056,60.8785498 53.8253303,62.0973292 C54.0863222,63.3990501 54.0008647,64.6155256 53.9130975,65.9172465 C53.9130975,66.0900413 53.8253303,66.2628361 53.6521056,66.4379349 L53.6521056,67.3940662 C53.6521056,67.6521064 53.3033464,67.9124506 52.8691297,67.9124506 C51.7373948,67.8272052 51.1276437,67.0438687 50.693427,66.0900413 C50.3423582,65.3090088 49.9104512,64.5256723 49.6471496,63.7469437 C49.212933,62.5304682 48.7764066,61.3139927 48.4299572,60.0145757 C48.0835077,58.7981002 47.8202061,57.5816247 47.5569045,56.2775999 C47.1249975,54.109601 46.6884711,51.8517488 46.2542545,49.5938965 C46.1687969,48.9856588 46.0810297,48.379725 45.9054953,47.7714872 C45.8177281,47.5963885 45.6445034,47.3383482 45.4712787,47.0757001 C45.4712787,47.0757001 45.5590459,47.0757001 45.6445034,46.9881508 C45.5590459,46.9029053 45.5590459,46.8153559 45.4712787,46.7301105 C45.3835115,46.8153559 45.2102867,46.8153559 45.1202099,46.8153559 C45.0347523,46.9881508 45.0347523,47.1609456 45.0347523,47.3383482 C44.6005356,47.4235937 44.1640093,47.5963885 43.7297926,47.6839379 C43.5542582,47.6839379 43.3833432,47.5111431 43.2054991,47.3383482 C43.2054991,47.4235937 43.2932663,47.5963885 43.3833432,47.7714872 C42.163841,47.8567327 41.0297964,47.9442821 39.9881383,48.0295275 C39.3783872,48.6400692 38.680869,48.4672744 38.0734276,48.2921756 C37.3759093,48.5525198 37.2904518,49.1607575 37.1149174,49.7666913 C36.8539254,50.8080681 37.0271502,51.9392981 36.8539254,52.9806749 C36.6807007,53.8492568 36.4173991,54.7178387 36.2441743,55.5864206 C36.1587168,55.6716661 36.1587168,55.7592155 36.1587168,55.8444609 C36.1587168,56.1048051 36.2441743,56.2775999 36.2441743,56.540248 C36.0732593,57.5816247 35.9831824,58.7105509 35.807648,59.7519276 C35.807648,60.272616 35.7221905,60.7933043 35.6344233,61.2287473 C35.6344233,62.0097798 35.7221905,62.703263 35.6344233,63.3990501 C35.5466561,64.2653281 35.4611985,65.136214 35.2879738,66.002492 C35.2879738,66.1752868 35.2002066,66.4379349 35.2002066,66.6982791 L35.2002066,66.7858284 C35.1124394,67.6521064 34.4172308,67.8272052 33.7197125,68 C33.5464878,68 33.2831862,67.8272052 33.1099614,67.7396558 C32.8512792,67.4793116 32.5902872,67.2166635 32.1537609,67.3065168 C31.5440098,66.9586233 30.9342587,66.7858284 30.5000421,66.2628361 C30.2367405,66.002492 30.2367405,65.3942542 30.2367405,64.9611152 C30.1535926,64.4404269 30.0658254,63.9197385 30.0658254,63.4842956 C29.9780582,62.7931163 29.9780582,62.1825746 30.0658254,61.4890915 C30.1535926,59.837173 30.3245077,58.1898625 30.5000421,56.540248 C30.5878093,55.7592155 30.8464915,54.9781829 30.9342587,54.109601 C31.1097931,52.9806749 31.2830179,51.8517488 31.4562426,50.7228226 C31.5440098,50.2021343 31.631777,49.6814459 31.7195442,49.0732082 C31.9805362,47.9442821 32.1537609,46.8153559 32.3269856,45.6887338 C32.50252,44.3847089 32.6757448,43.082988 32.763512,41.7789631 C32.9367367,40.7375864 32.9367367,39.6962096 32.9367367,38.7423823 C33.0221942,38.1341445 33.1977286,39.8298376 33.2831862,39.3091493 L33.2831862,39.1340505 C33.1099614,38.2677725 33.373263,37.484436 33.5464878,36.6158541 C33.6319453,36.0974697 33.6319453,35.5744774 33.7197125,35.053789 C33.8952469,34.3603058 33.9807044,33.6645187 34.0684716,32.8834862 C34.1562388,32.4503472 34.3294636,32.0149042 34.4172308,31.5817652 C34.5904555,31.5817652 34.7659899,31.6693146 35.0246722,31.756864" id="Fill-13"></path>
                    <path d="M107.947088,65.48289 C108.210316,66.0140382 108.475874,66.3689205 108.650582,66.8107606 C107.860899,67.3419088 107.068885,67.7837489 106.104493,67.520525 C105.575707,67.3419088 104.963062,67.2549509 104.434276,67.3419088 C103.472213,67.3419088 102.857238,66.8107606 102.328453,66.1926545 C101.538769,65.306624 100.749085,64.3312855 100.04792,63.3582972 C99.696173,62.9141069 99.3467554,62.4722668 98.9926789,62.0280765 C98.8156406,61.6755445 98.7317804,61.4099704 98.4685524,61.1420461 C98.2006656,60.6132481 97.8535774,60.1690578 97.58802,59.7272177 C97.1500832,59.0174533 96.7121464,58.3969969 96.3580699,57.6895827 C95.2189684,55.9198721 94.1637271,54.1478113 93.1131448,52.2887926 C92.2349418,50.7799556 91.2705491,49.2758191 90.3900166,47.7693324 C89.8635607,46.8856522 89.3394343,45.9103137 88.8106489,44.9349752 C88.7221298,44.8480173 88.4612313,44.7587092 88.1956739,44.6717513 C88.1956739,45.0242833 88.1071547,45.2028995 88.1071547,45.3768153 C88.0209651,45.3768153 87.9324459,45.3768153 87.9324459,45.4661234 L87.9324459,46.3521538 C88.0209651,46.4414619 88.1071547,46.4414619 88.284193,46.6200781 C88.1956739,46.707036 88.1071547,46.9726101 88.1071547,47.2381842 L88.1956739,47.3251421 C88.1956739,48.4790968 88.284193,49.4544353 88.284193,50.5167317 C88.284193,51.5790282 88.1956739,52.6413246 88.1956739,53.7905789 L88.1956739,55.4733316 C88.284193,56.4486701 88.1956739,57.4240086 88.1956739,58.3969969 C88.284193,59.0174533 88.284193,59.7272177 88.284193,60.3453238 C88.284193,61.3206623 88.3727121,62.2066927 88.284193,63.0903729 C88.284193,63.6238713 88.1071547,64.2443276 88.0209651,64.7731256 C87.7577371,66.0140382 87.4945092,67.2549509 87.2312812,68.5828214 C87.0542429,69.2925858 86.3507488,69.6451178 85.6519135,69.6451178 C85.3863561,69.6451178 85.1231281,69.823734 84.9484193,70 C84.0702163,70 82.9287854,69.0270117 82.7540765,68.1409813 C82.5770383,67.3419088 82.2276206,66.5451864 82.0505824,65.7484641 C81.878203,64.9493916 81.7896839,64.1550195 81.6988353,63.3582972 C81.6126456,63.0903729 81.6126456,62.827149 81.6126456,62.5615749 L81.6126456,59.1937192 C81.6126456,57.8658487 81.5241265,56.6249361 81.4356073,55.2970656 L81.4356073,50.6929977 C81.4356073,49.7176592 81.3470882,48.8316288 81.3470882,47.9455984 C81.3470882,46.707036 81.4356073,45.3768153 81.4356073,44.1382529 C81.4356073,43.4308386 81.3470882,42.7210742 81.3470882,42.01366 L81.3470882,39.9760251 C81.3470882,39.0899947 81.263228,38.1146562 81.263228,37.1416679 C81.1747088,36.4342537 81.263228,35.7244892 81.263228,35.0147248 C81.1747088,34.0417365 81,33.1557061 81,32.2720259 C81,31.0311133 81.0861897,29.881859 81.0861897,28.6385961 L81.0861897,26.2484292 C81.0861897,25.0075166 81.1747088,23.8559121 81.263228,22.7066578 C81.263228,21.1108629 81.3470882,19.5174183 81.4356073,18.0109316 C81.4356073,16.5067951 81.5241265,15.0003084 81.5241265,13.4961719 L81.5241265,11.2822709 C81.5241265,10.4855486 81.5241265,9.6864761 81.6126456,8.88975379 C81.6126456,8.53487158 81.878203,8.44556347 82.2276206,8.44556347 C83.8093178,8.44556347 85.0369384,8.97906189 86.0036606,10.2176243 C86.1760399,10.3962405 86.1760399,10.5725065 86.1760399,10.8380806 C86.1760399,11.1929628 86.1760399,11.5454948 86.0875208,11.900377 L86.0875208,12.6101414 C86.1760399,13.2305978 86.1760399,13.6724379 86.2645591,14.2035861 C86.3507488,14.9110003 86.5301165,15.6184145 86.6186356,16.3281789 C86.7024958,16.9509854 86.791015,17.5690915 86.791015,18.1895478 C86.8795341,18.6313879 86.791015,19.0755782 86.7024958,19.4281102 C87.0542429,20.2248325 87.2312812,21.0239051 86.9657238,21.7336695 C86.9657238,22.0838513 86.9657238,22.3517756 87.0542429,22.5303918 C87.1427621,23.5033801 87.1427621,24.3894105 87.1427621,25.1861328 C87.0542429,25.364749 86.8795341,25.5386648 86.791015,25.717281 C86.9657238,25.8065891 87.0542429,25.8065891 87.2312812,25.893547 C87.2312812,26.4270454 87.1427621,26.8665353 87.1427621,27.4000337 C87.1427621,27.5762997 87.1427621,27.7525657 87.2312812,27.8418738 C87.5806988,28.1991063 87.4945092,28.549288 87.40599,28.7279042 C87.40599,30.3213489 87.4945092,31.8278356 87.4945092,33.2450142 C87.40599,33.5105883 87.40599,33.6892045 87.40599,33.9547786 C87.40599,34.0417365 87.4945092,34.0417365 87.5806988,34.2180025 C87.4945092,34.5752349 87.40599,35.0147248 87.3198003,35.4589151 L87.3198003,35.5482232 C87.40599,35.4589151 87.40599,35.369607 87.4945092,35.2826491 C87.5806988,35.6375313 87.669218,35.9900633 87.669218,36.3472958 C87.7577371,36.5235618 87.7577371,36.7867857 87.7577371,37.0523598 C87.7577371,37.0523598 87.8462562,37.0523598 87.9324459,37.1416679 C88.1071547,36.7867857 88.3727121,36.5235618 88.4612313,36.2556374 C88.9853577,35.2826491 89.425624,34.3073106 89.7750416,33.4212802 C90.303827,32.3589838 90.7394343,31.2966874 91.18203,30.234391 C91.2705491,30.058125 91.4429285,29.9688169 91.4429285,29.7902007 C91.6199667,29.6139347 91.7061564,29.3483606 91.7946755,29.1720946 C91.7946755,28.2860641 92.4096506,27.5762997 92.7590682,26.6902693 C92.9361065,26.1591211 93.1993344,25.6279729 93.4625624,25.0968247 C93.9028286,24.3001024 94.3407654,23.5033801 94.6948419,22.7066578 C95.4798669,21.1108629 96.3580699,19.5174183 97.1500832,17.8346656 C98.1168053,15.9756469 98.9926789,13.9356617 99.959401,12.076643 C100.485857,11.0143466 101.009983,9.9520502 101.538769,8.97906189 C101.713478,8.71348779 101.801997,8.53487158 101.976705,8.26929748 C102.242263,8.00372337 102.591681,7.91441527 102.943428,8.09303148 C103.821631,8.53487158 104.788353,8.97906189 105.666556,9.5102101 C106.015973,9.86274209 106.279201,10.3962405 106.542429,10.9250385 C106.630948,11.0143466 106.542429,11.2822709 106.45391,11.4585369 C106.104493,11.9873349 105.841265,12.6101414 105.314809,13.0519815 C104.611314,13.6724379 104.522795,14.5584683 103.998669,15.3551906 C103.821631,15.5314566 103.733111,15.7970307 103.644592,16.064955 C103.295175,16.9509854 103.031947,17.7453575 102.591681,18.6313879 C102.416972,19.0755782 102.242263,19.5174183 101.976705,19.9616086 C101.624958,20.6690228 101.27787,21.2871289 100.837604,21.9099355 C100.485857,22.5303918 100.13411,23.1484979 99.7823627,23.7689542 C99.4329451,24.4763684 98.9926789,25.1861328 98.6432612,25.8065891 C98.3800333,26.5140033 98.0282862,27.1344596 97.7650582,27.8418738 C97.4156406,28.549288 97.0615641,29.2590525 96.7121464,29.9688169 C96.446589,30.4999651 96.1833611,31.0311133 95.9224626,31.5622615 C95.5707155,32.4482919 95.2189684,33.4212802 94.7787022,34.3073106 C94.5154742,35.1040329 94.1637271,35.9031055 93.8143095,36.6998278 C93.3763727,37.7621242 92.9361065,38.8244206 92.4096506,39.9760251 C92.0602329,40.6834393 92.1464226,41.1276296 92.6728785,41.7480859 C93.2878536,42.4555001 93.8143095,43.1652645 94.3407654,43.8726788 C94.6948419,44.3145189 95.0442596,44.6717513 95.3936772,45.1135914 C96.3580699,46.3521538 97.324792,47.5930664 98.2891847,48.7446709 C98.6432612,49.2758191 99.081198,49.6307013 99.4329451,50.1594993 C100.13411,51.224146 100.837604,52.2887926 101.538769,53.351089 C101.890516,53.879887 102.416972,54.3240773 102.591681,54.8552255 C102.768719,55.4733316 103.295175,55.830564 103.733111,56.3617122 C103.91015,56.7165944 104.259567,56.9821685 104.434276,57.2453924 C104.963062,58.0444649 105.400998,58.9281451 105.841265,59.7272177 C106.279201,60.4369821 106.807987,61.2313542 107.243594,61.9387684 C107.595341,62.4722668 107.947088,63.0010648 108.210316,63.5345632 C108.475874,63.9764033 108.739101,64.4205936 109,64.8624337 C108.650582,65.0410499 108.296506,65.306624 107.947088,65.48289" id="Fill-15"></path>
                    <path d="M51.8865281,7.10705878 C51.6158617,7.54185134 51.3451952,7.75804653 50.8924875,7.32325397 C50.1715086,8.08233931 49.3595091,8.29853451 48.456489,8.19043691 C47.6444895,8.19043691 46.83249,8.73092489 45.9318652,8.4066321 C45.9318652,8.51713187 45.8408446,8.62282729 45.8408446,8.73092489 C42.7700973,8.94952225 29.7349903,9.05761985 26.9373048,9.27381504 C25.7660134,9.05761985 24.7719728,8.94952225 23.7803274,8.84142465 C23.416245,8.84142465 23.2342038,9.05761985 23.3252244,9.49001023 C23.416245,10.5733884 23.5958909,11.5726906 23.8665574,12.6584709 C23.6893068,12.8722639 23.5958909,13.0908613 23.5072656,13.1989589 C23.5958909,13.415154 23.6893068,13.5256538 23.6893068,13.5256538 C23.7803274,14.7147274 23.8665574,15.9062031 23.957578,16.9919834 C24.0485986,17.3162762 24.0485986,17.5348735 24.0485986,17.7510687 C23.957578,18.0729593 23.957578,18.3996543 23.957578,18.7263493 C24.0485986,20.1340202 24.2282445,21.4359957 24.2282445,22.8436666 C24.3192651,24.0351423 24.2282445,25.226618 24.1396192,26.7447887 C24.2282445,27.5014719 24.2282445,28.371057 24.3192651,29.3439353 L24.2282445,29.3439353 C24.2282445,29.5625327 24.3192651,29.6706303 24.3192651,29.7787279 C24.3192651,29.8868255 24.2282445,29.9949231 24.2282445,29.9949231 C24.4102857,31.1863988 24.4965157,32.2697769 24.5899316,33.3555572 C24.4965157,33.4636548 24.4965157,33.67985 24.4102857,33.7855455 C24.4965157,33.8960452 24.5899316,34.1122404 24.6809522,34.220338 C24.5899316,34.6551306 24.5899316,35.1956185 24.5899316,35.6304111 C24.5899316,35.8466063 24.6809522,36.1733012 24.6809522,36.4951919 C24.7719728,37.364777 24.7719728,38.1214601 24.7719728,38.9862409 C24.7719728,39.6396308 24.6809522,40.2882164 24.6809522,41.0473017 L24.6809522,41.3739967 L24.6809522,39.8390108 C24.6809522,40.055206 24.6809522,40.1633036 24.7719728,40.381901 C24.8605981,40.8118892 24.8605981,41.2466817 24.6809522,41.6814743 C24.5899316,42.1138647 24.6809522,42.7624502 24.6809522,43.1948406 L24.6809522,43.3053404 C24.7719728,44.0644257 24.7719728,44.9292065 24.7719728,45.690694 C24.8605981,46.4473772 24.8605981,47.2040604 24.8605981,47.9655479 C24.8605981,48.722231 24.7719728,49.3732188 24.8605981,50.0242065 C24.8605981,51.4318774 24.7719728,52.7338529 24.7719728,54.1415238 C24.7719728,55.1144022 24.7719728,56.0920849 24.6809522,56.9592678 C24.6809522,57.715951 24.7719728,58.4774385 24.4965157,59.0179265 C24.1396192,59.8851094 24.3192651,60.86039 24.2282445,61.7251707 C24.1396192,62.2680609 24.1396192,62.8085489 24.1396192,63.4595366 C24.2282445,64.4348171 24.2282445,65.3020001 24.2282445,66.2772806 C24.2282445,66.8201708 24.3192651,67.3630609 24.3192651,67.7954513 C24.3192651,68.1197441 24.2282445,68.5521345 24.2282445,68.8788294 C24.1396192,69.0974268 24.1396192,69.313622 24.2282445,69.527415 C24.1396192,69.8541099 24.1396192,70.1784027 24.0485986,70.5050977 C23.6893068,70.9374881 23.5958909,71.8070732 22.8773073,71.9127686 C22.333579,72.018464 21.8832666,72.1289638 21.3395383,71.5884758 C20.7982053,70.9374881 20.0772264,70.3970001 19.5358934,69.7436102 C19.1742063,69.313622 18.9945604,68.6626342 18.9035398,68.0116465 C18.6328733,66.2772806 18.5418528,64.5429147 18.4508322,62.7028534 C18.3622069,62.5947558 18.4508322,62.3785606 18.4508322,62.2680609 L18.3622069,62.1599633 C18.3622069,61.1870849 18.3622069,60.2094022 18.4508322,59.2341217 C18.4508322,57.6078534 18.5418528,56.0920849 18.6328733,54.5763164 L18.6328733,49.3732188 L18.6328733,42.7624502 C18.6328733,40.7037916 18.5418528,40.9392041 18.5418528,38.77485 C18.5418528,36.6056916 18.7214987,34.3308378 18.6328733,32.1640815 C18.6328733,30.6459108 18.4508322,29.1277402 18.4508322,27.5014719 C18.3622069,25.226618 18.4508322,22.9517642 18.3622069,20.6745082 C18.3622069,18.7263493 18.2711863,16.6652884 18.1825609,14.6066298 C18.1825609,12.9803615 18.0915404,13.9532399 18.002915,12.3269716 C18.002915,12.0002766 18.0915404,9.16331527 18.1825609,8.62282729 C17.5478121,8.62282729 17.0064791,8.73092489 16.4651461,8.84142465 C15.8327925,8.84142465 15.2938548,8.94952225 14.6615012,9.05761985 C13.938127,9.16331527 10.7188724,9.16331527 9.99789348,9.27381504 C9.09487339,9.27381504 8.2828739,9.16331527 7.37985381,9.16331527 L5.66483423,9.16331527 C5.30314714,9.16331527 5.03248064,9.05761985 4.67079355,9.16331527 C3.85879406,9.16331527 3.13541988,8.94952225 2.41444097,8.51713187 C1.51381617,8.08233931 0.970087891,7.10705878 0.337734303,6.23987585 C-0.112578101,5.5888881 -0.112578101,5.15649772 0.337734303,4.39741238 C1.60483676,4.18121719 3.04439928,3.96261983 4.40012705,3.64072921 C5.57381364,3.42213185 6.74750022,2.98733929 7.92118681,2.7711441 C8.91522748,2.66304651 9.90926816,2.66304651 10.809893,2.55494891 C11.2626007,2.55494891 14.2111888,2.44685132 14.6615012,2.44685132 C16.1058543,2.44685132 17.5478121,2.34115589 18.9945604,2.34115589 C20.2592676,2.23065612 21.6102048,2.12255853 22.9659326,2.23065612 C25.1336599,2.44685132 27.2079713,1.90636334 29.2846779,2.01446093 C31.1793434,2.01446093 43.1293891,2.01446093 45.0288451,2.12255853 L47.2851977,2.12255853 C47.4624483,2.23065612 47.6444895,2.34115589 47.7355101,2.44685132 C48.0948019,2.7711441 48.456489,2.8792417 48.8181761,2.7711441 C49.4481344,2.66304651 49.9918627,2.55494891 50.3511545,2.44685132 C51.0745287,2.98733929 51.0745287,3.7488268 51.163154,4.39741238 C51.2541746,4.83220493 51.5248411,5.26219315 51.7068822,5.6969857 C51.8865281,6.13177825 52.1547994,6.56416863 51.8865281,7.10705878" id="Fill-10"></path>
                    <path d="M116.683069,67 C116.683069,66.912591 116.683069,66.912591 116.754937,66.8274822 C115.878925,66.5675553 114.999029,66.3053282 114.194885,66.0454013 C113.0955,65.7003656 112.363224,65.1805119 112.289414,63.7037592 C112.217546,62.4915339 112.143736,61.3667176 112.071868,60.1498918 C112.071868,59.5449293 112.217546,58.9376665 112.217546,58.2452949 C112.217546,57.897959 112.143736,57.6403324 112.071868,57.2906963 L112.071868,52.7822302 C112.071868,50.7028152 112,48.6234002 112,46.541685 C112,45.5019775 112.071868,44.4622701 112.071868,43.4225626 L112.071868,40.7335846 C112.143736,39.5213593 112.217546,38.3068337 112.217546,37.1797172 C112.289414,35.9674919 112.289414,34.6678575 112.289414,33.453332 C112.289414,32.4136245 112.217546,31.286508 112.143736,30.1593914 L112.143736,26.0856703 C112.289414,26.0005615 112.363224,26.0005615 112.437035,25.9131525 L112.437035,25.3932987 C112.437035,25.3932987 112.363224,25.3932987 112.217546,25.4784075 C112.143736,21.5795044 111.852379,17.6783011 112.143736,13.8622066 C112.071868,11.9553095 112,10.1358214 112,8.14151523 C112.658466,7.9689974 113.388799,7.88158836 114.049207,8.3163333 C114.63192,8.66366921 115.144707,9.00870488 115.731305,9.35604079 C116.170282,9.61596766 116.46358,10.2209302 116.391713,10.828193 L116.391713,12.3900544 C116.391713,12.7373904 116.391713,13.1698351 116.46358,13.517171 C116.46358,13.9519159 116.611201,14.3843606 116.611201,14.8145051 C116.683069,15.683995 116.754937,16.6362934 116.754937,17.5034831 C116.754937,18.3706727 116.611201,19.2378624 116.611201,20.017643 C116.611201,20.8848326 116.683069,21.749722 116.754937,22.5318029 C116.902557,23.6589194 117.048236,24.873445 117.123988,26.0005615 C117.123988,26.605524 117.048236,27.2127868 117.048236,27.8200496 C117.123988,28.3399033 117.048236,28.9471661 117.197799,29.3819111 C117.487213,30.3342095 117.341534,31.286508 117.415345,32.2411066 C117.487213,32.9334782 117.634833,33.6258498 117.708644,34.2331126 C117.634833,34.3205216 117.634833,34.3205216 117.561023,34.3205216 C117.634833,34.7529663 117.778569,35.2751203 117.778569,35.707565 C117.854322,36.9220906 117.928132,38.0492071 118,39.1740234 L118,41.3431476 C117.928132,42.3828551 118,43.3351535 118,44.3771613 L118,46.454276 C118,47.4088747 117.928132,48.2760643 117.854322,49.2283628 L117.854322,53.3043842 C117.854322,53.3043842 117.854322,53.389493 117.928132,53.476902 C117.854322,53.7368289 117.854322,53.9116469 117.854322,54.1715738 L117.854322,57.1181784 C117.854322,58.4178128 117.928132,59.7174471 117.928132,61.0193817 C117.928132,61.6266445 118,62.3190161 117.634833,62.8388698 C117.415345,63.1862057 117.487213,63.6186504 117.487213,63.9659863 C117.415345,64.3133223 117.415345,64.6583579 117.415345,64.920585 C117.341534,65.5255476 117.267724,66.2202194 117.197799,66.8274822 C117.048236,66.912591 116.828747,66.912591 116.683069,67" id="Fill-17"></path>
                    <path d="M127.853822,6.62071712 C128.464623,6.44437703 129.073111,6.71006276 129.686226,6.9733973 C130.211423,7.33077988 130.81991,7.50711997 131.342793,7.85980015 C132.474164,8.65920856 133.001674,9.7219515 133.172884,11.1397258 C133.260802,11.6687461 133.522244,12.2024688 133.610162,12.8231859 C133.698081,12.999526 133.783685,13.0888716 133.783685,13.2652117 C133.783685,13.9752745 133.783685,14.682986 134.045127,15.4823944 C134.392173,16.2771004 134.653615,17.2528489 134.743847,18.1369006 C134.919683,19.4676805 135.613776,20.7961091 135.613776,22.2162347 C135.613776,23.1026375 136.051054,23.9866892 136.224577,24.9624377 C136.400414,25.5808036 136.486019,26.2908663 136.749774,26.9985779 C137.099134,27.9743264 137.44618,28.9477237 137.793226,29.9234722 C138.054668,30.809875 138.406341,31.7832723 138.667783,32.6696752 C138.841306,33.556078 139.100434,34.4424809 139.276271,35.3288837 C139.452108,35.6815639 139.540026,36.125941 139.625631,36.4786211 C139.887072,37.4543696 140.148514,38.4301181 140.497874,39.4035154 C140.671397,40.2005726 140.932838,40.9976298 141.19428,41.7970382 C141.890686,43.9225241 142.589406,46.1397069 143.200207,48.3521872 C143.288125,48.4415328 143.288125,48.5285273 143.461649,48.6178729 C143.549567,48.3521872 143.635172,47.999507 143.635172,47.6421244 C143.37373,46.0503612 143.635172,44.4538956 143.72309,42.9467756 C143.898927,41.1739699 143.984532,39.4035154 144.07245,37.6307097 C144.160368,36.6573124 144.248287,35.7709096 144.333891,34.8845067 L144.333891,30.4548437 C144.42181,28.5080491 144.507415,26.6458977 144.507415,24.7860976 C144.593019,22.0398946 144.593019,19.2913404 144.680938,16.5451374 C144.77117,13.6202431 144.77117,10.6953488 144.859088,7.7728057 C144.944693,7.42012552 144.944693,7.06274294 145.032611,6.62071712 C145.032611,6.44437703 145.203821,6.17869129 145.291739,6 C146.163982,6.08934565 146.862702,6.53137147 147.47119,6.9733973 C147.908468,7.42012552 148.257828,7.94914579 148.692792,8.39352282 C148.692792,8.48286847 148.692792,8.48286847 148.780711,8.56986291 C148.954234,9.7219515 149.130071,10.8763913 149.303594,11.936783 C149.391512,12.5575001 149.479431,13.1782173 149.565035,13.7095887 L149.565035,17.3421946 C149.565035,18.4049375 149.565035,19.5570261 149.652954,20.7091147 C149.652954,21.4191775 149.740872,22.126889 149.828791,22.7452549 C149.912082,23.6316578 149.912082,24.5180606 150,25.3151178 C150,25.6725004 150,26.0251806 149.912082,26.3778608 C149.912082,26.6458977 149.828791,26.9115835 149.828791,27.1772692 C149.740872,28.682038 149.652954,30.0998123 149.652954,31.5175866 C149.565035,32.6696752 149.565035,33.8217638 149.565035,34.8845067 L149.565035,35.7709096 C149.479431,35.8602552 149.303594,35.9496009 149.130071,36.0389465 C149.652954,36.4786211 149.479431,36.9229982 149.391512,37.4543696 C149.303594,38.4301181 149.391512,39.4035154 149.391512,40.3769127 C149.391512,42.1497184 149.391512,43.9225241 149.479431,45.6059842 C149.479431,46.5817327 149.565035,47.55513 149.565035,48.4415328 C149.565035,48.9752555 149.479431,49.4149301 149.479431,49.8593072 L149.479431,54.1102789 C149.479431,54.7333472 149.391512,55.2623675 149.479431,55.8830846 C149.565035,56.7694875 149.740872,57.6558903 149.740872,58.5422932 C149.828791,59.8707219 149.828791,61.1121561 149.828791,62.3512391 C149.828791,62.6169249 149.652954,62.8849618 149.652954,63.1506475 C149.565035,63.8583591 149.479431,64.476725 149.391512,65.1867878 C149.303594,65.8968505 149.213362,66.6069133 149.130071,67.1359336 C148.519269,67.4039705 147.994073,67.6696562 147.47119,67.9329908 C147.297666,68.0223364 146.95062,68.0223364 146.774783,67.9329908 C146.163982,67.5803106 145.379658,67.3122736 145.12053,66.5175676 C145.12053,66.428222 145.032611,66.3388764 144.944693,66.2495307 C144.42181,65.8968505 144.07245,65.3631279 143.808695,64.7447619 C143.37373,63.7713646 142.762929,62.8849618 142.242359,61.9115645 C141.978604,61.3778418 141.802767,60.7571247 141.54364,60.1387588 C141.108675,58.8949734 140.583478,57.6558903 140.148514,56.4168073 C139.625631,54.7333472 139.100434,53.1368816 138.667783,51.4534216 C137.969063,48.794213 137.270343,46.1397069 136.573937,43.3911527 C135.875217,41.0869755 135.090893,38.6958039 134.480091,36.302281 C134.220964,35.1501925 134.133045,33.9087582 133.871604,32.7590208 C133.698081,31.872618 133.610162,30.9862151 133.260802,30.1891579 C132.474164,28.1506665 132.474164,25.8464893 131.692153,23.7210034 C131.51863,23.189632 131.342793,22.7452549 131.16927,22.2162347 L130.907829,22.2162347 C130.993433,22.6582605 130.993433,23.189632 131.081352,23.6316578 C131.16927,24.5180606 131.16927,25.4044635 131.254875,26.2015207 C131.430712,27.4406037 131.51863,28.682038 131.604235,29.9234722 C131.692153,31.4305922 131.692153,32.9353609 131.777758,34.4424809 C131.863363,36.125941 131.951281,37.809401 131.951281,39.4905099 C131.951281,40.0242325 131.863363,40.555604 131.863363,40.9976298 L131.863363,42.4177554 C131.863363,44.1905611 131.951281,45.8716699 132.041513,47.55513 L132.041513,50.4776731 C132.041513,51.0983902 132.129432,51.6321129 132.129432,52.2504788 C132.215036,53.3132217 132.215036,54.3783159 132.215036,55.5304044 L132.215036,59.3393504 C132.129432,60.7571247 132.129432,62.174899 132.041513,63.682019 C132.129432,63.7713646 132.302955,63.9477047 132.390873,64.0346992 C132.302955,64.2133905 132.215036,64.2133905 132.041513,64.3003849 C132.041513,64.8341076 131.951281,65.2761334 131.863363,65.7181592 C131.777758,66.5175676 130.993433,67.1359336 130.211423,67.1359336 C129.161029,67.0465879 128.203182,66.8702478 127.594694,65.8075049 C127.24302,65.1867878 126.810369,64.3897306 126.722451,63.5926734 C126.548928,61.4648363 126.285173,59.3393504 126.548928,57.2138645 C126.634532,56.4168073 126.458696,55.6197501 126.458696,54.8203417 L126.458696,51.0113957 C126.458696,50.1249929 126.458696,49.1515956 126.370777,48.1758471 L126.370777,44.5432412 L126.370777,40.2899183 C126.370777,38.9614896 126.548928,37.5413641 126.548928,36.2152866 C126.634532,34.4424809 126.634532,32.5826807 126.634532,30.7205294 C126.634532,29.4814464 126.634532,28.1506665 126.548928,26.8222378 C126.458696,25.2257722 126.285173,23.5423121 126.285173,21.9505489 L126.285173,15.8350746 C126.370777,13.5308974 126.285173,11.3160659 126.023731,9.01423994 C125.938126,8.30417717 126.111649,7.59411441 126.111649,6.88640285 C126.199568,6.62071712 126.285173,6.44437703 126.458696,6.08934565 C126.895974,6.26803694 127.330939,6.44437703 127.853822,6.62071712" id="Fill-19"></path>
                    <path d="M188.719902,50.5298479 C188.545858,51.1378968 188.283632,51.7459457 188.371814,52.5267358 C188.459996,53.2223069 188.107267,54.003097 188.019085,54.7861903 C187.759179,55.999985 187.496953,57.2137796 187.234727,58.5150964 C187.058362,59.1231453 186.796136,59.7311942 186.53623,60.4267653 C186.271683,61.2075554 185.923595,62.0758677 185.396822,62.7691356 C185.048734,63.4624035 184.436099,63.9852334 183.909326,64.5034569 C183.296692,65.2865502 182.595874,65.9798181 181.902019,66.587867 C181.811516,66.7629114 181.461108,66.7629114 181.287064,66.9356526 C180.586247,67.1936127 179.973612,67.5437015 179.363298,67.7164427 C178.750663,67.8891838 178.138028,68.0642282 177.527714,67.976706 C176.040218,67.976706 174.640905,67.8891838 173.241591,67.8039649 C172.628956,67.7164427 172.018642,67.6289205 171.491869,67.4561793 C170.445284,67.0208716 169.305877,66.5026481 168.259292,65.9798181 C167.906563,65.807077 167.558475,65.721858 167.205746,65.5468136 C166.683614,65.2865502 166.070979,65.0262869 165.634709,64.6785013 C164.497622,63.8977112 163.358214,63.2021401 162.311629,62.2486089 C161.260404,61.2075554 160.125637,59.9914576 159.336638,58.777663 C158.373594,57.0410384 157.501054,55.2168916 156.800237,53.3950481 C156.278105,52.0085123 155.925376,50.6173701 155.66547,49.2308343 C155.403244,47.144121 155.138697,45.1495363 155.050515,43.1526484 C154.878791,40.0271848 155.138697,37.0767656 155.925376,34.1263465 C156.366287,32.7375074 156.626193,31.4361906 157.062463,30.0473516 C157.589236,28.4005525 158.113689,26.6639279 158.724003,25.0148256 C159.162594,23.7987277 159.513002,22.4951077 160.125637,21.4563575 C161.08868,19.7197329 161.698995,17.808064 163.18417,16.419225 C164.671666,15.1202114 166.070979,13.641547 167.558475,12.3425334 C168.60738,11.5594401 169.744467,10.8638689 171.057919,10.4331676 C171.842277,10.1729043 172.628956,9.8228155 173.327453,9.47733316 C174.204634,8.95680644 175.251219,8.95680644 176.214262,9.04202541 C176.915079,9.12724439 177.701758,9.30459199 178.402575,9.39211418 C179.363298,9.56485535 180.064115,10.0830789 180.674429,11.0389133 C180.414523,11.2139577 180.238159,11.2991767 180.064115,11.3866989 C179.363298,11.8197034 178.662481,12.2550112 178.049846,12.6880157 C177.615896,12.9505823 177.351349,13.2960646 176.915079,13.556328 C176.478809,13.9041135 175.952036,14.1643769 175.427583,14.4246403 C174.204634,15.1202114 172.893503,15.7282603 172.018642,16.9420549 C171.580051,17.6353228 170.969737,18.2410685 170.445284,18.8514206 C170.094876,19.4594695 169.830329,20.0652152 169.482241,20.6732642 C169.134153,21.2813131 168.869606,21.8870588 168.433336,22.4098887 C167.818381,23.1906788 167.646657,24.1442101 167.296249,24.9273034 C167.034023,25.7933124 166.507249,26.5764057 166.245023,27.444718 C165.894615,28.4005525 165.634709,29.4416059 165.28198,30.3951372 C164.84803,31.4361906 164.321257,32.4772441 163.970849,33.6058197 C163.534578,34.7366986 163.18417,35.862971 162.836082,36.9915467 C162.483353,38.2951667 162.135265,39.5941803 161.961221,40.8954971 C161.784856,41.503546 161.873039,42.1991171 161.873039,42.8946882 C161.873039,43.2401706 161.784856,43.5856529 161.610812,43.8482195 C161.260404,44.9767951 161.348586,46.0178486 161.52263,47.144121 C161.610812,48.0124333 161.698995,48.8807455 161.873039,49.83658 C162.049403,50.6173701 162.39517,51.3129412 162.571535,52.0937313 C162.7479,52.614258 162.7479,53.2223069 162.924264,53.8303559 C163.012446,54.2633604 163.272352,54.6088427 163.446396,55.0441505 C163.710943,55.3044138 163.796805,55.6521994 164.059031,55.999985 C164.671666,56.6932528 165.28198,57.4740429 165.894615,58.254833 C166.423708,58.777663 166.769476,59.3857119 167.38211,59.8164132 C167.906563,60.2517209 168.519198,60.5995065 169.220015,60.8574666 C169.744467,61.1223364 170.357102,61.2927744 170.969737,61.3802966 C171.580051,61.5530377 172.192686,61.6405599 172.805321,61.6405599 C173.940087,61.6405599 175.079495,61.5530377 176.214262,61.3802966 C176.652853,61.2927744 177.177305,60.8574666 177.527714,60.5119843 C178.574298,59.1231453 179.88543,57.7366095 180.674429,56.1727261 C181.372925,54.7861903 181.637472,53.0495658 181.98556,51.4004634 C182.250107,50.0093212 182.424151,48.5352632 182.424151,47.058902 C182.424151,46.1053708 181.98556,45.0643173 181.54929,44.1084828 C181.287064,43.5004339 179.973612,43.2401706 179.363298,43.4129117 C178.838845,43.5004339 178.314393,43.4129117 177.78994,43.5004339 C176.826897,43.5856529 175.777992,43.6731751 174.729087,43.7630005 C174.640905,43.8482195 174.466861,43.7630005 174.290496,43.7630005 L174.204634,43.7630005 C173.768364,43.8482195 173.241591,43.9357417 172.805321,43.9357417 L172.805321,44.1084828 C172.104504,43.8482195 171.403687,43.6731751 170.791052,43.3276928 C170.445284,43.0674294 170.180738,42.5445994 169.830329,42.1138981 C170.357102,41.5910682 170.70519,41.1580637 171.491869,41.0728447 C172.280868,40.9830193 173.067547,40.5500147 173.856546,40.4624926 C175.952036,40.1170102 178.049846,39.7692247 180.238159,39.5941803 C181.372925,39.5089613 182.512333,39.7692247 183.737603,39.8544436 C184.610143,39.9419658 185.482684,40.1170102 186.357545,40.2897514 C186.53623,40.2897514 186.707953,40.3772736 186.796136,40.5500147 C186.97018,40.8079749 187.234727,41.1580637 187.496953,41.5910682 C187.408771,42.0263759 187.670997,42.4593805 188.107267,42.8048628 C188.193129,42.8048628 188.193129,42.9799072 188.283632,43.0674294 C188.808084,44.7165318 188.808084,46.3633309 188.982128,48.0124333 C189.07031,48.8807455 188.808084,49.6638389 188.719902,50.5298479" id="Fill-21"></path>
                    <path d="M226.808736,37.7046632 C226.630467,38.2562157 226.808736,38.5331459 227.348297,38.4408358 C227.792781,38.3485258 228.151697,38.2562157 228.600935,38.1662134 C230.214865,37.9815933 231.555449,37.2431129 232.900786,36.3200124 C234.243747,35.3046018 235.049524,33.7376387 235.948,32.3552957 C236.573131,31.3375774 236.929669,30.2321645 237.37653,29.1244439 C238.362953,26.5420702 238.724245,14.1679079 238.362953,11.4932242 C238.094361,9.64702314 237.647499,7.98774997 236.214216,6.88233711 C235.406062,6.233859 234.602663,5.7746165 233.525917,5.95692885 C232.629817,6.0492389 231.736095,6.0492389 230.839995,6.14154895 C230.393134,6.14154895 229.941519,6.14154895 229.58498,6.233859 C228.957473,6.41847911 228.332343,6.60079146 227.792781,6.88233711 C227.255597,7.15695951 226.540144,7.15695951 226.540144,7.89543992 C226.540144,8.26237237 226.540144,8.63161258 226.630467,9.00085278 L226.630467,9.83164324 C226.630467,10.2931935 226.72079,10.8470538 226.72079,11.3086041 C226.808736,12.0447767 226.72079,12.7832571 226.72079,13.5217375 C226.72079,14.1540614 226.91332,17.0779822 226.877666,20.0895977 C226.846766,23.2189084 226.585305,26.4359137 226.540144,27.0936228 C226.540144,27.2782429 226.449821,27.4651707 226.540144,27.7421009 C226.540144,28.2013434 226.630467,28.6652014 226.72079,29.216754 C226.808736,30.6014047 226.989382,31.8914377 226.989382,33.2760885 C226.989382,34.4761191 226.808736,35.673842 226.72079,36.8761804 L226.72079,37.3354229 C226.72079,37.5200431 226.808736,37.6123531 226.808736,37.7046632 M219.798591,0.00340541673 C220.77911,-0.0909595995 223.448956,1.79634072 223.982925,3.11509183 L224.429475,3.11509183 C226.031382,2.73763176 227.63329,2.3601717 229.23756,2.07707665 C229.773892,1.89070574 230.305499,1.89070574 230.749686,1.79634072 C231.019033,1.79634072 231.286017,1.89070574 231.553002,1.89070574 C232.798143,1.98507076 234.045646,2.17380079 235.293149,2.3601717 C235.382932,2.64326674 235.382932,2.73763176 235.472714,2.92636179 C235.557771,2.92636179 235.647554,2.83199678 235.824756,2.64326674 C236.181523,2.83199678 236.53829,3.11509183 236.982477,3.30382186 C237.606228,3.77328781 238.232343,4.153107 238.853732,4.62493208 C239.387701,5.09439804 239.92167,5.4718581 240.276074,5.94368319 C240.902189,6.88733335 241.523578,7.82862438 242.05991,8.86899869 C242.326894,9.43282966 242.414314,10.1877498 242.501734,10.9426699 C242.681299,12.167056 242.652946,13.4905254 242.771081,14.8069173 C243.286149,20.5891337 242.771081,27.0814468 242.771081,28.1171029 C242.771081,29.060753 242.501734,29.8156732 242.326894,30.6649583 C242.05991,31.7949794 241.61336,32.8329945 241.079391,33.7766447 C240.722624,34.5315648 240.455639,35.286485 240.191017,36.039046 C239.92167,36.6052361 239.742105,37.2657912 239.477483,37.8319813 C239.030934,38.4901773 238.407182,39.1530915 237.873213,39.7169225 C237.341606,40.2831126 236.717855,40.7549377 236.094103,41.1300386 C235.201004,41.6985878 234.312631,42.0760479 233.424257,42.3591429 C232.351593,42.7342439 231.196235,43.0173389 230.040877,43.300434 C229.68411,43.3924399 229.147778,43.300434 228.701228,43.1117039 C228.079839,42.9229739 226.832336,43.1117039 226.477932,43.583529 L226.477932,44.5271792 L226.477932,41.4084154 C226.477932,42.0666114 226.567714,42.6328015 226.567714,43.1989916 L226.567714,44.4257368 C226.567714,45.3670278 226.567714,46.2186721 226.477932,47.0655981 C226.477932,47.9148833 226.388149,48.7641684 226.388149,49.5167294 C226.30073,50.9345638 226.121165,52.2533149 226.031382,53.572066 C225.946325,54.5157161 225.946325,55.3650013 225.946325,56.3062923 C225.764398,58.6630586 225.674615,60.927819 225.497413,63.2845853 C225.497413,63.8507754 225.407631,64.3226004 225.407631,64.8887905 C225.320211,65.7357166 225.407631,66.5850017 225.320211,67.4342869 C225.320211,67.9061119 225.232791,68.3755779 225.232791,68.8497621 C225.143009,69.1328571 225.232791,69.4159522 225.232791,69.7934123 C224.696459,69.8877773 224.16249,69.9821423 223.538738,70.0741482 C223.628521,70.2628782 223.718303,70.5459733 223.805723,70.7347033 C223.361536,71.0177983 222.825204,71.1121634 222.473163,70.8290683 C221.580064,70.2628782 220.77911,69.5103172 219.975793,68.8497621 C219.798591,68.6610321 219.711171,68.189207 219.711171,67.9061119 C219.623752,66.1131766 219.623752,64.3226004 219.533969,62.4376592 C219.533969,60.927819 219.444187,59.3236137 219.352042,57.7217676 C219.352042,56.4006573 219.264622,55.1762713 219.264622,53.855161 C219.264622,52.3453208 219.352042,50.8378396 219.444187,49.3279994 C219.444187,48.2923433 219.352042,47.2543281 219.264622,46.2186721 L219.264622,40.7455012 C219.264622,39.3347442 219.264622,42.9229739 219.174839,41.5098578 C219.174839,39.2474565 219.174839,36.9850553 219.085057,34.8146599 C219.085057,33.0217246 219,31.3231543 219.085057,29.5325781 C219.085057,28.6620608 219.337865,24.6373929 219.378031,20.9500799 C219.411109,18.2418039 219.229181,15.6349703 219.264622,14.9956474 C219.264622,13.2074303 219.264622,11.32013 219.174839,9.52719468 C219.174839,7.9229894 219,6.32350238 219,4.71693798 C219,3.30382186 219.085057,1.98507076 219.174839,0.66396053 L219.444187,0.66396053 C219.533969,0.475230498 219.711171,0.286500465 219.798591,0.00340541673" id="Fill-23"></path>
                    <path d="M261.101085,62.6671043 C261.271609,62.6740876 261.359176,62.6764154 261.532005,62.6833986 C262.587413,62.3691512 261.32461,62.3249238 262.356974,62.6228769 C263.045985,62.8230642 263.976956,63.5609637 263.946999,64.350074 C263.850215,64.6084553 263.923955,65.0484017 264,65.316094 C263.919347,65.2253114 263.83178,65.2229836 263.83178,65.2229836 C263.469992,65.5605087 263.198074,65.9026892 262.845504,66.0633046 C261.875358,66.4706624 260.907516,66.7849098 259.937371,67.1899399 C258.789787,67.6741138 259.785281,67.8859398 258.478696,67.9278395 L258.596219,67.9301672 C258.42339,67.9255117 258.250562,67.9185284 258.075428,68 C257.379504,67.9743947 256.602927,67.8580067 255.994569,67.8370569 C255.30095,67.7253244 254.609635,67.6997191 254.001277,67.6764415 C253.568053,67.662475 253.222395,67.5647091 252.879042,67.4622877 L252.874433,67.6391974 C252.611734,67.6298863 252.178509,67.613592 251.918114,67.604281 C251.233712,67.3156389 250.553919,66.8524149 249.867212,66.6522276 C248.576757,66.2541808 247.650394,65.4301542 246.631857,64.6922546 C245.698581,64.0451376 244.638564,62.0758536 245.120181,60.7769641 C245.210052,60.6023822 245.048745,60.3346899 245.057962,60.0739809 C245.154746,59.8109441 245.249226,59.5525629 245.253835,59.377981 C245.286096,58.5004159 245.228487,57.7089778 245.263052,56.7429579 C245.223878,55.3393193 245.276879,53.8495535 245.244617,52.2666775 C245.263052,51.740604 245.196225,51.2122027 245.216965,50.5976743 C245.143225,50.243855 245.154746,49.8946911 245.170877,49.4547447 C245.203139,48.5771796 245.40362,47.7089255 245.265357,46.7359223 C245.136311,45.4184108 245.452012,43.9356283 245.4981,42.6227723 C245.528057,41.7452072 245.297618,40.858331 245.327575,39.9830937 C245.371359,38.754037 245.415142,37.5249803 245.548796,36.2167798 C245.585666,35.1646327 245.710103,34.1124857 245.836844,32.9788671 C245.963585,31.840593 246.090326,30.7046466 246.221676,29.4802455 C246.247025,28.77959 246.094935,28.0719513 246.210154,27.2851688 C246.3392,26.1492224 246.548899,25.1017309 246.673336,23.9681123 C246.703293,23.1790021 246.73325,22.301437 246.760902,21.5123267 C246.797772,20.4601797 246.836947,19.4080326 246.959079,18.3605411 C247.095038,16.9592302 247.230997,13.0462675 247.364651,11.7310837 C247.484479,10.8581741 247.509827,10.1575187 248.143533,9.38935825 C248.503017,9.0518332 249.378683,8.81905731 249.800385,9.18684322 C249.887951,9.18917098 250.063085,9.19615426 250.316567,9.38004721 C250.470961,9.913104 250.620746,10.6207427 250.860402,11.2422543 C251.09084,12.0430034 250.890359,12.7366756 251.040144,13.5327691 C251.111579,13.9727156 251.263669,14.5057723 251.424976,14.9503743 C251.494107,15.3903207 251.482585,18.1719926 251.471063,18.5211565 C251.542499,19.0518855 251.607022,19.5802868 251.588587,20.1063603 C251.565543,20.7185609 251.542499,21.4192163 251.517151,22.1221995 C251.496412,22.7344001 251.560934,23.3512562 251.544804,23.8773297 C251.517151,24.66644 251.397323,25.5416774 251.36967,26.3307876 C251.346627,27.0291153 251.14845,27.7251152 251.383497,28.4374095 C251.457237,28.7912288 251.265973,29.224192 251.254451,29.6594829 C251.224494,30.4485932 251.2798,31.328486 251.342018,32.1222518 C251.305148,33.1743989 251.35354,34.3150007 251.312061,35.4579303 C251.277495,36.4216225 251.325887,37.4760973 251.206059,38.4374618 C251.067796,39.8364449 250.841967,41.3192273 250.708312,42.7205382 C250.597702,43.3280832 250.749791,43.9495949 250.816618,44.566451 C250.784357,45.4440161 250.7544,46.3215812 250.807401,47.2899289 C250.79127,47.7252198 250.779748,48.0767114 250.84888,48.6074405 C250.839662,48.8681495 250.830445,49.133514 250.821227,49.3965507 C251.50102,49.7689922 251.130015,50.4603366 251.111579,50.9840823 C251.16458,51.95243 251.134623,52.8299951 251.102362,53.7052325 C251.083927,54.2336338 251.067796,54.7597073 251.047057,55.283453 C251.042448,55.458035 251.037839,55.5464898 251.03323,55.7233995 C251.25906,56.6056201 251.404236,57.4901685 251.634675,58.3770446 C251.782155,59.0846834 252.196944,59.7131783 252.434296,60.3370176 C252.597907,60.6047099 252.851389,60.8770577 253.005783,61.3239874 C253.164786,61.8547165 253.676359,62.0479205 254.282412,62.1573251 C254.886161,62.2690575 255.482996,62.5530441 256.17892,62.5786495 C257.82425,62.7229705 259.308274,62.6042548 260.868342,62.6577933 L261.101085,62.6671043 Z" id="Fill-25"></path>
                    <path d="M74.0991304,62.6671043 C74.2719383,62.6740876 74.3594944,62.6764154 74.5299982,62.6833986 C75.5875829,62.3691512 74.3249328,62.3249238 75.3571723,62.6228769 C76.0461001,62.8230642 76.9746548,63.5609637 76.9470056,64.350074 C76.8502331,64.6084553 76.9239645,65.0484017 77,65.316094 C76.9170522,65.2253114 76.8294961,65.2229836 76.8294961,65.2229836 C76.4677515,65.5605087 76.195867,65.9026892 75.8433387,66.0633046 C74.87331,66.4706624 73.9055855,66.7849098 72.9355568,67.1899399 C71.7904161,67.6741138 72.7857899,67.8859398 71.4793617,67.9278395 L71.5968711,67.9301672 C71.4240632,67.9255117 71.2489511,67.9185284 71.073839,68 C70.377999,67.9743947 69.6015152,67.8580067 68.9932312,67.8370569 C68.3019994,67.7253244 67.6084634,67.6997191 67.0001794,67.6764415 C66.5670075,67.662475 66.2236957,67.5647091 65.8803838,67.4622877 C65.8803838,67.4622877 65.8780797,67.5507425 65.8734715,67.6391974 C65.6131075,67.6298863 65.1776315,67.613592 64.9195716,67.604281 C64.232948,67.3156389 63.5532367,66.8524149 62.866613,66.6522276 C61.5763136,66.2541808 60.6500629,65.4301542 59.6339521,64.6922546 C58.698485,64.0451376 57.6385962,62.0758536 58.1201544,60.7769641 C58.2123187,60.6023822 58.0487271,60.3346899 58.0579435,60.0739809 C58.154716,59.8109441 58.2491843,59.5525629 58.2560967,59.377981 C58.2883542,58.5004159 58.2284474,57.7089778 58.263009,56.7429579 C58.2238392,55.3393193 58.2768336,53.8495535 58.2445761,52.2666775 C58.263009,51.740604 58.198494,51.2122027 58.219231,50.5976743 C58.1431955,50.243855 58.1570201,49.8946911 58.1708447,49.4547447 C58.2031022,48.5771796 58.4035595,47.7089255 58.2676172,46.7359223 C58.1385873,45.4184108 58.4542498,43.9356283 58.4980278,42.6227723 C58.5302853,41.7452072 58.2998747,40.858331 58.3298281,39.9830937 C58.3736061,38.754037 58.41508,37.5249803 58.5487181,36.2167798 C58.587888,35.1646327 58.7100056,34.1124857 58.8390355,32.9788671 C58.9634572,31.840593 59.0901831,30.7046466 59.2215171,29.4802455 C59.2468623,28.77959 59.0947913,28.0719513 59.2099966,27.2851688 C59.3390265,26.1492224 59.5487002,25.1017309 59.675426,23.9681123 C59.7030753,23.1790021 59.7353328,22.301437 59.760678,21.5123267 C59.7998478,20.4601797 59.8367135,19.4080326 59.9588311,18.3605411 C60.0947734,16.9592302 60.2307156,13.0462675 60.3666579,11.7310837 C60.4841673,10.8581741 60.5095125,10.1575187 61.1431416,9.38935825 C61.5025822,9.0518332 62.3804466,8.81905731 62.8020981,9.18684322 C62.88735,9.18917098 63.062462,9.19615426 63.3159137,9.38004721 C63.4702888,9.913104 63.6200557,10.6207427 63.8596828,11.2422543 C64.0900934,12.0430034 63.8919403,12.7366756 64.039403,13.5327691 C64.1108303,13.9727156 64.2652054,14.5057723 64.4241888,14.9503743 C64.493312,15.3903207 64.4840955,18.1719926 64.4702709,18.5211565 C64.5416982,19.0518855 64.6085173,19.5802868 64.5877803,20.1063603 C64.5670433,20.7185609 64.5440023,21.4192163 64.5186571,22.1221995 C64.4956161,22.7344001 64.5624351,23.3512562 64.5440023,23.8773297 C64.516353,24.66644 64.3965395,25.5416774 64.3688902,26.3307876 C64.3458492,27.0291153 64.1500001,27.7251152 64.3827149,28.4374095 C64.4587504,28.7912288 64.2675095,29.224192 64.2536849,29.6594829 C64.2260356,30.4485932 64.2813342,31.328486 64.3412409,32.1222518 C64.3043752,33.1743989 64.3527615,34.3150007 64.3112876,35.4579303 C64.276726,36.4216225 64.3274163,37.4760973 64.2076028,38.4374618 C64.0693564,39.8364449 63.843554,41.3192273 63.7076118,42.7205382 C63.5993188,43.3280832 63.7513898,43.9495949 63.8159047,44.566451 C63.7836473,45.4440161 63.755998,46.3215812 63.8089924,47.2899289 C63.7928637,47.7252198 63.7790391,48.0767114 63.8504663,48.6074405 C63.8412499,48.8681495 63.8320335,49.133514 63.8228171,49.3965507 C64.5025284,49.7689922 64.1292632,50.4603366 64.1108303,50.9840823 C64.1638248,51.95243 64.1338714,52.8299951 64.103918,53.7052325 C64.0831811,54.2336338 64.0670523,54.7597073 64.0486195,55.283453 C64.0417071,55.458035 64.039403,55.5464898 64.0324907,55.7233995 C64.2605972,56.6056201 64.4057559,57.4901685 64.6361665,58.3770446 C64.7813252,59.0846834 65.1960643,59.7131783 65.4333872,60.3370176 C65.5992829,60.6047099 65.8504305,60.8770577 66.0071097,61.3239874 C66.1637889,61.8547165 66.6776046,62.0479205 67.2812804,62.1573251 C67.8872603,62.2690575 68.4840238,62.5530441 69.1775597,62.5786495 C70.8226915,62.7229705 72.3065358,62.6042548 73.8664157,62.6577933 L74.0991304,62.6671043 Z" id="Fill-27"></path>
                    <path d="M276.844172,19.8095238 C276.752829,19.8979479 276.559993,19.9840451 276.559993,20.1585664 C276.466113,20.6867843 276.369695,21.2126752 276.27074,21.738566 C276.27074,22.4389782 276.174322,23.2301415 276.080442,23.9305537 C276.080442,24.3703474 275.986562,24.7193901 275.890144,25.1591838 C275.796264,25.859596 275.603428,26.5600082 275.50701,27.3511714 C275.41313,28.2261049 275.41313,29.1056924 275.41313,30.06905 C275.314175,31.29768 274.837161,32.5239831 275.029997,33.8387103 L275.029997,33.9271345 C274.837161,34.6275467 274.646863,35.3302858 274.550445,35.9446008 L274.550445,37.6083707 C274.550445,37.9620672 274.360147,38.3111098 274.360147,38.6624794 C274.459102,39.3628916 274.550445,40.1540549 274.167312,40.5915216 C274.073432,41.5572062 273.977014,42.2552915 273.880596,43.0464548 C273.786716,43.4862485 273.596418,44.0098124 273.5,44.5380302 C273.5,44.7125516 273.596418,44.975497 273.880596,44.8870729 C275.029997,44.6241274 276.080442,44.3635089 277.133425,44.0982365 C277.514021,44.0098124 277.897154,43.9237152 278.277751,43.9237152 C279.044018,43.7491939 279.904165,43.5746726 280.670432,43.4862485 L280.670432,43.5746726 C280.76685,43.6607698 280.863267,43.7491939 280.957148,43.9237152 C280.957148,43.4862485 281.053565,43.223303 280.957148,42.8719335 C280.863267,41.994673 280.670432,41.0289884 280.480134,40.0656308 C280.287298,38.8393277 280.193418,37.6083707 280.000583,36.3820676 C279.904165,35.6793284 279.810285,34.8904921 279.526106,34.1900799 C278.9476,32.4378859 278.759839,30.5088437 278.567004,28.6658987 C278.376706,27.5256928 278.186408,26.471584 277.993572,25.3337051 C277.706856,24.107402 277.514021,22.7903478 277.227305,21.4756206 C277.133425,20.9497297 277.133425,20.4238388 277.037007,19.8979479 C277.037007,19.8979479 276.940589,19.8979479 276.844172,19.8095238 M271.024672,30.6870769 L271.024672,30.5084993 C270.851447,30.4215602 270.678223,30.2429826 270.417231,30.1536938 C270.590456,30.1536938 270.76599,30.1536938 270.936905,30.0644049 C271.024672,29.9774658 271.112439,29.888177 271.200207,29.7119491 C271.112439,29.62501 270.936905,29.5357212 270.678223,29.3571436 C270.76599,29.62501 270.76599,29.7119491 270.851447,29.7988882 L270.504998,29.7988882 C271.461199,22.8931037 272.941693,16.1635471 274.507644,9.34470165 C274.941861,9.34470165 275.117395,9.08153463 275.202853,8.63744029 C275.202853,8.19569565 275.551612,7.92782922 275.988138,8.01711803 C276.24913,8.01711803 276.597889,8.28263475 276.771114,8.63744029 C277.029796,8.99224582 277.117564,9.43399046 277.378556,9.8757351 C277.639547,10.2328903 277.988307,10.5853462 278.334756,11.0294405 C278.424833,10.9401517 278.424833,10.9401517 278.5126,10.8532126 C278.861359,11.7367019 279.383343,12.6225409 279.642025,13.5953189 C279.990785,14.3918691 279.990785,15.2777081 280.254086,16.076608 C280.600536,17.3172525 280.949295,18.5555473 281.298054,19.706903 C281.383511,19.97007 281.471279,20.1509973 281.559046,20.4141644 C281.817728,21.4762313 281.990953,22.627587 282.256564,23.6896539 C282.515246,24.6624319 282.776238,25.5506206 283.03723,26.4341099 C283.298222,27.5878153 283.559214,28.6498822 283.820206,29.7988882 C283.99574,30.5977881 284.168965,31.3943383 284.34219,32.1908884 C284.515415,32.8981498 284.603182,33.5184721 284.776407,34.2280831 C284.954251,34.9376942 285.125166,35.6426059 285.212933,36.3522169 C285.386158,37.061828 285.561692,37.7714391 285.649459,38.4763507 C285.822684,39.4514785 285.998218,40.4242566 286.171443,41.4017341 C286.25921,42.3745122 286.25921,43.3472903 286.430125,44.3224181 C286.60566,45.2975458 286.868961,46.2703239 287.039877,47.2454517 C287.215411,48.2182298 287.476403,49.1910079 287.649628,50.1661357 C287.737395,50.5185915 287.91062,50.7864579 287.998387,51.1389138 C288.086154,51.9378137 288.171611,52.7343638 288.259379,53.530914 C288.259379,53.7094916 288.432603,53.8857195 288.520371,54.1512363 C288.695905,54.9477864 288.86913,55.8336254 289.042354,56.6301756 C289.127812,57.3397866 289.215579,58.0446983 289.303346,58.7543094 C289.393423,59.2853428 289.478881,59.8163763 289.566648,60.2604706 C289.654415,61.4987654 289.654415,62.7394099 289.82533,63.9800545 C290.086322,65.3076381 290.000865,66.5482826 289.913097,67.8758662 C289.913097,68.0520941 289.82533,68.228322 289.654415,68.4068997 L289.654415,69.3820274 C289.654415,69.6451945 289.303346,69.9107112 288.86913,69.9107112 C287.737395,69.8237721 287.127644,69.0248722 286.693427,68.0520941 C286.342358,67.255544 285.910451,66.4589938 285.649459,65.6624436 C285.212933,64.4217991 284.776407,63.1811546 284.429957,61.8559207 C284.083508,60.6152761 283.820206,59.3746316 283.559214,58.0446983 C283.124997,55.8336254 282.688471,53.530914 282.256564,51.2282026 C282.168797,50.6078803 282.08103,49.9899078 281.905495,49.3695855 C281.817728,49.1910079 281.646813,48.9278409 281.471279,48.6599744 C281.471279,48.6599744 281.559046,48.6599744 281.646813,48.5706856 C281.559046,48.4837465 281.559046,48.3944577 281.471279,48.3075186 C281.383511,48.3944577 281.210287,48.3944577 281.12021,48.3944577 C281.034752,48.5706856 281.034752,48.7469136 281.034752,48.9278409 C280.600536,49.01478 280.164009,49.1910079 279.729793,49.2802967 C279.556568,49.2802967 279.383343,49.1040688 279.205499,48.9278409 C279.205499,49.01478 279.293266,49.1910079 279.383343,49.3695855 C278.163841,49.4565246 277.029796,49.5458134 275.988138,49.6327525 C275.378387,50.2554245 274.680869,50.0791966 274.073428,49.900619 C273.375909,50.1661357 273.290452,50.7864579 273.114917,51.4044305 C272.853925,52.4664974 273.02715,53.6202028 272.853925,54.6822697 C272.680701,55.5681087 272.417399,56.4539477 272.246484,57.3397866 C272.158717,57.4267258 272.158717,57.5160146 272.158717,57.6029537 C272.158717,57.8684704 272.246484,58.0446983 272.246484,58.3125647 C272.07095,59.3746316 271.983182,60.5259873 271.807648,61.5880542 C271.807648,62.1190877 271.72219,62.6501211 271.634423,63.0942155 C271.634423,63.8907656 271.72219,64.6003767 271.634423,65.3076381 C271.548966,66.1911273 271.461199,67.079316 271.287974,67.9628053 C271.287974,68.1390332 271.200207,68.4068997 271.200207,68.6724164 L271.200207,68.7617052 C271.112439,69.6451945 270.417231,69.8237721 269.719713,70 C269.548797,70 269.285496,69.8237721 269.109961,69.7344833 C268.851279,69.4689666 268.590287,69.2034498 268.153761,69.2927386 C267.546319,68.9379331 266.934259,68.7617052 266.497732,68.228322 C266.23674,67.9628053 266.23674,67.3448328 266.23674,66.9007384 C266.153593,66.369705 266.065825,65.8386715 266.065825,65.3945772 C265.978058,64.6896655 265.978058,64.0669936 266.065825,63.3597322 C266.153593,61.6749933 266.324508,59.9949539 266.497732,58.3125647 C266.587809,57.5160146 266.848801,56.7194644 266.934259,55.8336254 C267.109793,54.6822697 267.283018,53.530914 267.456243,52.3795583 C267.546319,51.8485248 267.631777,51.3174914 267.719544,50.6995188 C267.980536,49.5458134 268.153761,48.3944577 268.326986,47.2454517 C268.50252,45.9155184 268.675745,44.5879348 268.763512,43.2603512 C268.939046,42.1959346 268.939046,41.1338677 268.939046,40.1610896 C269.022194,39.5407673 269.197729,38.9204451 269.285496,38.3894116 L269.285496,38.210834 C269.109961,37.3273447 269.373263,36.5284448 269.548797,35.6426059 C269.631945,35.1139221 269.631945,34.580539 269.719713,34.0518552 C269.895247,33.3422441 269.980704,32.6326331 270.068472,31.8360829 C270.156239,31.3943383 270.329464,30.9502439 270.417231,30.5084993 C270.590456,30.5084993 270.76599,30.5977881 271.024672,30.6870769" id="Fill-29"></path>
                    <path d="M294.855143,6.53213831 C295.465908,6.35554374 296.07436,6.6216129 296.685125,6.88532746 C297.21029,7.24322579 297.818742,7.41982037 298.343907,7.77300951 C299.47521,8.57357158 300.000375,9.6378482 300.173888,11.0576686 C300.261801,11.5874523 300.520914,12.1219452 300.608827,12.7435581 C300.69674,12.9201527 300.784653,13.0096273 300.784653,13.1862218 C300.784653,13.8973093 300.784653,14.6060422 301.046079,15.4066043 C301.393105,16.2024571 301.654531,17.1796138 301.742444,18.0649412 C301.91827,19.3976416 302.614635,20.7279874 302.614635,22.1501624 C302.614635,23.0378444 303.051887,23.9231719 303.223086,24.9003285 C303.398912,25.5195868 303.486825,26.2306743 303.750565,26.9394072 C304.09759,27.9165638 304.444616,28.8913659 304.793955,29.8685225 C305.055381,30.7562045 305.40472,31.7310066 305.666146,32.6186886 C305.839659,33.5063707 306.101084,34.3940528 306.276911,35.2817348 C306.450424,35.634924 306.538337,36.0799423 306.623936,36.4331314 C306.887676,37.4102881 307.146788,38.3874447 307.498441,39.3622467 C307.671953,40.1604542 307.931066,40.9586617 308.194805,41.7592237 C308.89117,43.887777 309.589848,46.1081594 310.200613,48.3238327 C310.288526,48.4133073 310.288526,48.5004272 310.459725,48.5899018 C310.547638,48.3238327 310.633238,47.9706435 310.633238,47.6127452 C310.374126,46.0186848 310.633238,44.4199153 310.721151,42.9106204 C310.899291,41.1352563 310.984891,39.3622467 311.072804,37.5868826 C311.158403,36.6120806 311.244003,35.7243985 311.331916,34.8367165 L311.331916,30.4006608 C311.419829,28.4510567 311.507742,26.586218 311.507742,24.7237339 C311.593342,21.9735678 311.593342,19.221047 311.681255,16.4708809 C311.771482,13.5417656 311.771482,13.1579667 311.857081,10.2288514 C311.942681,9.87566223 311.942681,9.52011849 312.030594,9.07745476 C312.030594,8.89850559 312.204107,8.63243644 312.29202,8.45348727 C313.161898,8.54296185 313.860576,8.98798018 314.471341,9.43064391 C314.908593,9.87566223 315.255618,10.4078005 315.69287,10.8504643 C315.69287,10.9399389 315.69287,10.9399389 315.780784,11.0270588 C315.951983,12.1808101 316.127809,13.3369159 316.303635,14.4011925 C316.391549,15.0204508 316.479462,15.6420637 316.562748,16.1765566 L316.562748,17.2690884 C316.562748,18.333365 316.562748,19.4871162 316.650661,20.6408674 C316.650661,21.3519549 316.738574,22.0606878 316.824174,22.6799461 C316.912087,23.5676281 316.912087,24.4553102 317,25.2535176 C317,25.611416 317,25.9646051 316.912087,26.3177943 C316.912087,26.586218 316.824174,26.8522872 316.824174,27.1183563 C316.738574,28.6252967 316.650661,30.0451171 316.650661,31.4649374 C316.562748,32.6186886 316.562748,33.7724399 316.562748,34.8367165 L316.562748,35.7243985 C316.479462,35.8138731 316.303635,35.9033477 316.127809,35.9928223 C316.650661,36.4331314 316.479462,36.8781497 316.391549,37.4102881 C316.303635,38.3874447 316.391549,39.3622467 316.391549,40.3370488 C316.391549,42.1124129 316.391549,43.887777 316.479462,45.5736665 C316.479462,46.5508232 316.562748,47.5256252 316.562748,48.4133073 C316.562748,48.9478002 316.479462,49.3881093 316.479462,49.8331276 L316.479462,54.0902341 C316.479462,54.7142016 316.391549,55.2439853 316.479462,55.8655982 C316.562748,56.7532803 316.738574,57.6409623 316.738574,58.5286444 C316.824174,59.8589902 316.824174,61.102216 316.824174,62.3430872 C316.824174,62.6091563 316.650661,62.8775801 316.650661,63.1436492 C316.562748,63.8523821 316.479462,64.4716404 316.391549,65.1827279 C316.303635,65.8938154 316.213409,66.6049029 316.127809,67.1346866 C315.519358,67.4031103 314.994192,67.6691795 314.471341,67.9328941 C314.297828,68.0223686 313.948489,68.0223686 313.774976,67.9328941 C313.161898,67.5797049 312.379933,67.3112812 312.118507,66.5154283 C312.118507,66.4259537 312.030594,66.3364791 311.942681,66.2470045 C311.419829,65.8938154 311.072804,65.3593225 310.809064,64.7400642 C310.374126,63.7652621 309.761047,62.8775801 309.240509,61.902778 C308.979083,61.3682851 308.803257,60.7466722 308.541831,60.1274139 C308.109206,58.8818335 307.58404,57.6409623 307.146788,56.4000911 C306.623936,54.7142016 306.101084,53.1154321 305.666146,51.4295426 C304.969781,48.7664964 304.271103,46.1081594 303.574739,43.3556387 C302.878374,41.0481363 302.091783,38.6535139 301.481018,36.2565368 C301.219592,35.1027856 301.131679,33.8595598 300.872566,32.7081632 C300.69674,31.8204812 300.608827,30.9327991 300.261801,30.1345916 C299.47521,28.0931584 299.47521,25.785656 298.690932,23.6571027 C298.51742,23.1249644 298.343907,22.6799461 298.170394,22.1501624 L297.906655,22.1501624 C297.992254,22.5928261 297.992254,23.1249644 298.082481,23.5676281 C298.170394,24.4553102 298.170394,25.3429922 298.255994,26.1411997 C298.429507,27.3820709 298.51742,28.6252967 298.603019,29.8685225 C298.690932,31.3778174 298.690932,32.8847578 298.778846,34.3940528 C298.864445,36.0799423 298.952358,37.7658318 298.952358,39.4493667 C298.952358,39.9838596 298.864445,40.5159979 298.864445,40.9586617 L298.864445,42.3808366 C298.864445,44.1562007 298.952358,45.8397357 299.042585,47.5256252 L299.042585,50.4523859 C299.042585,51.0739988 299.128185,51.6084917 299.128185,52.22775 C299.213784,53.2920267 299.213784,54.3586579 299.213784,55.5124091 L299.213784,59.3268519 C299.128185,60.7466722 299.128185,62.1664926 299.042585,63.6757876 C299.128185,63.7652621 299.301697,63.9418567 299.389611,64.0289767 C299.301697,64.2079259 299.213784,64.2079259 299.042585,64.2950459 C299.042585,64.8295388 298.952358,65.2722025 298.864445,65.7148662 C298.778846,66.5154283 297.992254,67.1346866 297.21029,67.1346866 C296.162273,67.045212 295.202169,66.8686174 294.593718,65.8043408 C294.244378,65.1827279 293.80944,64.3845204 293.721527,63.586313 C293.550327,61.4554051 293.284274,59.3268519 293.550327,57.1982986 C293.635927,56.4000911 293.460101,55.6018837 293.460101,54.8013216 L293.460101,50.9868788 C293.460101,50.0991968 293.460101,49.1243947 293.372188,48.1472381 L293.372188,44.5093899 L293.372188,40.2499288 C293.372188,38.919583 293.550327,37.497408 293.550327,36.1694169 C293.635927,34.3940528 293.635927,32.5315687 293.635927,30.66673 C293.635927,29.4258588 293.635927,28.0931584 293.550327,26.7628126 C293.460101,25.1640431 293.284274,23.4781535 293.284274,21.8840932 L293.284274,15.7597934 C293.372188,13.452291 293.284274,11.2342631 293.022849,8.92911532 C292.939562,8.21802784 293.110762,7.50694036 293.110762,6.79820747 C293.198675,6.53213831 293.284274,6.35554374 293.460101,6 C293.895039,6.17894917 294.332292,6.35554374 294.855143,6.53213831" id="Fill-31"></path>
                    <path d="M350.059222,31.6662491 C347.067741,30.5358954 344.694625,28.5317712 343.110213,25.6538767 C342.407846,24.4356836 342.232837,23.1296512 342.321508,21.7357794 C342.407846,20.6909534 342.496517,19.6461275 342.671525,18.6868293 C342.848867,18.076577 343.110213,17.554164 343.464898,16.9439116 C344.078594,15.6378792 344.694625,14.3318467 345.749343,13.2870208 C347.597434,11.4585753 349.620533,9.88902484 352.346001,9.36661186 C353.312048,9.19093316 354.280429,8.92972667 355.335148,9.01756602 C357.094568,9.27877251 358.853987,9.539979 360.60874,9.80118549 C360.788416,9.88902484 361.052095,9.88902484 361.313442,9.97455263 C361.754463,10.1502313 362.193152,10.32591 362.634173,10.4992772 C362.897853,10.6726443 363.072861,10.848323 363.334208,10.9338508 C363.777563,11.2828966 364.302589,11.5441031 364.74361,11.8053096 C364.74361,12.2421948 364.74361,12.5034013 364.832281,12.6767684 C364.482264,13.1136536 364.302589,13.4603879 364.038909,13.8972731 C363.688892,14.4196861 363.161532,14.5930532 362.634173,14.678581 L360.788416,14.678581 C359.554022,14.8565713 358.412966,15.0299384 357.180905,15.1154662 C356.126187,15.2033056 355.335148,15.7257185 354.541775,16.1602922 C353.839408,16.4214987 353.223377,16.7728561 352.521009,16.5948658 C350.675252,17.554164 350.059222,19.4727603 348.649819,20.8643206 C348.563482,21.3012057 348.386139,21.9091465 348.299802,22.4338711 C348.124793,23.3030183 348.649819,24.00111 349.004503,24.6968901 C349.179512,25.2216147 349.531862,25.7417161 349.88188,26.5253356 C351.466291,28.2682532 353.664399,29.7499643 356.039849,30.8826297 C357.358247,31.5807213 358.762983,32.1008228 360.170052,32.6232357 C360.347394,32.7989144 360.520069,32.9722816 360.874753,33.2357996 C362.634173,33.9315798 364.302589,35.0642451 365.887,36.1969104 C366.062008,36.2847497 366.328021,36.1969104 366.50303,36.2847497 C367.11906,36.8950021 367.910099,37.0660576 368.52613,37.8519887 C369.314835,38.8968146 370.460558,39.8538012 371.424272,40.8130994 C371.778956,41.2499846 371.956298,41.8579254 372.306315,42.2948106 C372.569995,42.7293842 372.922346,43.1662694 373.097354,43.600843 C373.3587,44.2989347 373.538376,44.9947148 373.713385,45.6904949 C373.890727,46.8231602 374.063402,48.0436649 373.977064,49.1740187 C373.890727,50.1333168 373.447371,51.0024641 373.186025,51.8762345 C373.097354,52.2252803 372.833675,52.4864868 372.745004,52.8332211 C372.660999,54.2294044 371.692619,55.2742304 371.076588,56.4045842 C370.899246,56.75363 370.721904,57.1026758 370.635567,57.5372495 C370.194545,58.584387 369.755857,59.7147407 369.230831,60.7595667 C368.876147,61.4576584 368.26245,61.9800714 367.557749,62.937058 C367.294069,63.7206774 365.182298,65.1168608 364.038909,64.8533428 C363.950238,65.031333 363.866234,65.1168608 363.777563,65.2902279 C362.634173,65.5514344 361.402113,65.9004803 360.258723,66.0738474 C359.028996,66.3350539 357.796935,66.4228933 356.476204,66.508421 C355.071468,66.5962604 353.664399,66.3350539 352.25733,65.7248016 C351.554962,65.4635951 350.675252,65.5514344 349.88188,65.2047002 C348.386139,64.5944478 346.895066,63.8085168 345.310655,63.1127367 C345.221984,63.0248973 345.135646,62.937058 345.046975,62.8515302 C344.519616,62.4169566 343.989923,61.9800714 343.376227,61.7188649 C342.585188,61.4576584 341.969157,61.0230848 341.264456,60.5885111 C340.650759,60.1493144 340.384746,59.3656949 340.475751,58.6722263 C340.562088,57.8862953 340.73943,57.1882036 341.000776,56.4045842 C341.089447,55.8844827 341.530469,55.6209647 342.055495,55.6209647 C342.937538,55.7064925 343.989923,55.3597582 344.519616,56.0578499 C346.104027,56.4924235 347.420092,56.8414693 348.740824,57.1882036 C349.970551,57.6250888 351.200278,57.8007675 352.521009,57.7129282 C354.982797,57.4494101 357.444585,57.1882036 359.822368,56.9293087 C360.788416,56.8414693 361.579455,56.4924235 362.193152,55.7943318 C364.482264,53.6191521 365.534649,50.7435692 365.887,47.6946191 C366.062008,46.3007473 365.798329,44.8190361 365.62332,43.3396365 C365.534649,42.814912 365.182298,42.2948106 364.832281,41.770086 C364.482264,41.1598337 364.12758,40.5518929 363.688892,39.9416406 C362.809182,38.7234475 361.843134,37.5907822 360.258723,37.153897 C359.554022,36.8950021 358.940325,36.2847497 358.237957,35.9357039 C356.653546,35.0642451 355.071468,34.1927862 353.400719,33.3213274 C352.60968,32.8844422 351.816308,32.537708 351.027603,32.1008228 C350.850261,32.0129834 350.763923,31.8396163 350.675252,31.6662491 C350.495577,31.6662491 350.23423,31.7540885 350.059222,31.6662491" id="Fill-35"></path>
                    <path d="M325.021171,7.41845742 C324.411995,7.41845742 323.89281,7.50547797 323.371317,7.59485043 C322.759833,7.59485043 322.238341,7.68422288 321.629164,7.77359534 C320.93461,7.86061589 320.325433,7.86061589 319.630879,7.95234025 C318.758648,7.95234025 317.978717,7.86061589 317.108794,7.86061589 L315.454325,7.86061589 C315.108202,7.86061589 314.847456,7.77359534 314.499025,7.86061589 C313.719094,7.86061589 313.022233,7.68422288 312.325371,7.33143687 C311.455448,6.97629895 310.936263,6.17900256 310.327086,5.46872673 C309.890971,4.9371958 309.890971,4.58205788 310.327086,3.9611545 C311.543133,3.78476149 312.934548,3.60836849 314.238279,3.34260302 C315.366641,3.16385811 316.501925,2.80872019 317.630287,2.63232719 C318.587894,2.54530664 319.543194,2.54530664 320.413117,2.45593418 C320.846925,2.45593418 321.197663,2.36891363 321.629164,2.36891363 C323.022887,2.36891363 324.411995,2.27718927 325.805717,2.27718927 C327.021764,2.18781681 328.325495,2.10079626 329.629225,2.18781681 C331.715195,2.36891363 333.718094,1.92440326 335.718687,2.01142381 C337.54391,2.01142381 339.45451,2.01142381 341.284348,2.10079626 L343.455695,2.10079626 C343.628756,2.18781681 343.804125,2.27718927 343.89181,2.36891363 C344.237933,2.63232719 344.586364,2.72169964 344.934795,2.63232719 C345.543972,2.54530664 346.065464,2.45593418 346.413895,2.36891363 C347.108449,2.80872019 347.108449,3.42962357 347.193826,3.9611545 C347.28151,4.31864433 347.542256,4.67143034 347.717625,5.02421635 C347.890687,5.38170618 348.149126,5.73449219 347.890687,6.17900256 C347.629941,6.53178858 347.371502,6.71053349 346.933079,6.35539557 C346.238526,6.97629895 345.45398,7.15504386 344.586364,7.06567141 C343.804125,7.06567141 343.021887,7.50547797 342.151964,7.24206441 C342.151964,7.33143687 342.066587,7.41845742 342.066587,7.50547797 C339.108387,7.68422288 336.150187,7.77359534 333.455041,7.95234025 C332.326679,7.77359534 331.371379,7.68422288 330.413771,7.59485043 C330.067648,7.59485043 329.889972,7.77359534 329.977656,8.12873326 L330.586833,9.33761333 C330.674518,9.6057307 330.674518,9.7821237 330.674518,9.95851671 C330.586833,10.2242822 330.586833,10.4923995 330.586833,10.758165 C330.674518,11.9082474 330.845272,12.9713093 330.845272,14.1260955 C330.935264,15.0997849 330.845272,16.0758262 330.759895,17.315281 C330.845272,17.9361844 330.845272,18.6441083 330.935264,19.4414047 L330.845272,19.4414047 C330.845272,19.6177977 330.935264,19.7095221 330.935264,19.7965426 C330.935264,19.8859151 330.845272,19.9752875 330.845272,19.9752875 C331.022948,20.9489769 331.108325,21.8356458 331.19601,22.7223146 C331.108325,22.8116871 331.108325,22.9880801 331.022948,23.0751006 C331.108325,23.1644731 331.19601,23.343218 331.283694,23.4325905 C331.19601,23.7853765 331.19601,24.2275349 331.19601,24.5826729 C331.19601,24.7614178 331.283694,25.0248313 331.283694,25.2929487 C331.371379,26.0008726 331.371379,26.621776 331.371379,27.3297 C331.371379,27.8612309 331.283694,28.3951137 331.283694,29.0160171 L331.283694,29.2817826 L331.283694,29.9897065 C331.283694,30.1660995 331.283694,30.2554719 331.371379,30.431865 C331.454449,30.7870029 331.454449,31.1421408 331.283694,31.4949268 C331.19601,31.8524166 331.283694,32.3815956 331.283694,32.7367336 L331.283694,32.826106 C331.371379,33.4446575 331.371379,34.1549333 331.371379,34.7758367 C331.454449,35.3967401 331.454449,48.7202918 331.454449,49.3411952 C331.454449,49.9620986 331.371379,50.4912776 331.454449,51.0251604 C331.454449,52.1752428 331.371379,53.2406566 331.371379,54.3930909 C331.371379,55.1903873 331.371379,55.9876837 331.283694,56.6979595 C331.283694,57.3188629 331.371379,57.9374144 331.108325,58.3819247 C330.759895,59.0922006 330.935264,59.889497 330.845272,60.5974209 C330.759895,61.0395794 330.759895,61.4817378 330.759895,62.0156207 C330.845272,62.8129171 330.845272,63.520841 330.845272,64.3181374 C330.845272,64.7626478 330.935264,65.2048062 330.935264,65.5599441 C330.935264,65.8257096 330.845272,66.1784956 330.845272,66.446613 C330.759895,66.6253579 330.759895,66.8017509 330.845272,66.9781439 C330.759895,67.2439094 330.759895,67.5096748 330.674518,67.7754403 C330.326087,68.1282263 330.238402,68.8385022 329.543848,68.9278746 C329.020048,69.0148952 328.588548,69.1066195 328.062441,68.6621091 C327.543256,68.1282263 326.846395,67.6884198 326.324902,67.1545369 C325.978779,66.8017509 325.805717,66.2678681 325.718033,65.7363371 C325.454979,64.3181374 325.369602,62.9022895 325.281918,61.3947173 C325.19654,61.3053448 325.281918,61.1289518 325.281918,61.0395794 L325.19654,60.9525588 C325.19654,60.1552624 325.19654,59.3556141 325.281918,58.5583178 C325.281918,57.2294904 325.369602,55.9876837 325.454979,54.7482288 L325.454979,50.4912776 L325.454979,32.3815956 C325.454979,30.6976304 325.369602,28.9266446 325.369602,27.1556589 C325.369602,25.3823212 325.542664,23.519611 325.454979,21.7486252 C325.454979,20.5044666 325.281918,19.2650117 325.281918,17.9361844 C325.19654,16.0758262 325.281918,14.2154679 325.19654,12.3527578 C325.19654,10.758165 325.108856,9.07184786 325.021171,7.38788263 L325.021171,7.41845742 Z" id="Fill-33"></path>
                </g>
            </g>
        </g>
    </g>
</svg>